<?xml version="1.0" encoding="utf-8"?>
<!-- Generator: Adobe Illustrator 12.0.0, SVG Export Plug-In  -->
<!DOCTYPE svg PUBLIC "-//W3C//DTD SVG 1.1//EN" "http://www.w3.org/Graphics/SVG/1.1/DTD/svg11.dtd" [
	<!ENTITY ns_flows "http://ns.adobe.com/Flows/1.0/">
	<!ENTITY ns_svg "http://www.w3.org/2000/svg">
	<!ENTITY ns_xlink "http://www.w3.org/1999/xlink">
]>
<svg  version="1.1" xmlns="&ns_svg;" xmlns:xlink="&ns_xlink;" xmlns:a="http://ns.adobe.com/AdobeSVGViewerExtensions/3.0/"
	 width="346" height="60" viewBox="-0.704 -0.674 346 60" enable-background="new -0.704 -0.674 346 60" xml:space="preserve">
<defs>
</defs>
<path fill="#DDDDDD" d="M23.664,41.127l-0.023,1.262c-2.422,1.102-4.818,1.914-7.186,2.457c-2.369,0.543-4.709,0.809-7.021,0.809
	c-1.281,0-2.455-0.125-3.518-0.375S3.9,44.662,3.057,44.178c-1.002-0.578-1.756-1.32-2.264-2.227s-0.762-1.965-0.762-3.172
	c0-2.117,1.066-4.008,3.197-5.676s5.313-3.105,9.545-4.324c-0.344-1-0.926-1.766-1.748-2.281c-0.82-0.52-1.863-0.781-3.131-0.781
	c-1.359,0-2.594,0.281-3.705,0.836c-1.109,0.555-2.096,1.367-2.955,2.445L0,27.795c1.314-2.008,2.939-3.523,4.879-4.547
	c1.938-1.016,4.197-1.531,6.777-1.531c2.094,0,3.936,0.586,5.523,1.746c1.586,1.16,2.928,2.91,4.021,5.23
	c0.859,1.828,1.498,3.773,1.912,5.844S23.711,38.803,23.664,41.127z M14.445,39.404c0-1.414-0.066-2.82-0.201-4.211
	c-0.135-1.383-0.344-2.758-0.627-4.117c-1.469,0.422-2.793,0.871-3.973,1.348c-1.18,0.473-2.207,0.98-3.082,1.508l2.398,9.66
	c1.25,0,2.328-0.07,3.234-0.211s1.633-0.363,2.18-0.676c0.031-0.559,0.051-1.113,0.059-1.66S14.445,39.951,14.445,39.404z
	 M20.031,32.982c0-0.563-0.137-0.984-0.41-1.266s-0.691-0.422-1.254-0.422s-0.988,0.141-1.277,0.422s-0.434,0.703-0.434,1.266
	s0.145,0.984,0.434,1.258s0.715,0.406,1.277,0.406s0.98-0.133,1.254-0.406S20.031,33.545,20.031,32.982z M20.992,39.295
	c0-0.594-0.207-1.102-0.621-1.523s-0.926-0.633-1.535-0.633c-0.594,0-1.105,0.203-1.535,0.609s-0.645,0.922-0.645,1.547
	c0,0.609,0.215,1.117,0.645,1.523s0.941,0.609,1.535,0.609c0.609,0,1.121-0.203,1.535-0.617S20.992,39.889,20.992,39.295z"/>
<path fill="#DDDDDD" d="M52.656,32.85c0,1.469-0.215,2.82-0.645,4.055s-1.066,2.359-1.91,3.375
	c-0.904,1.094-1.939,1.914-3.104,2.461c-1.162,0.547-2.463,0.82-3.9,0.82c-1.188,0-2.266-0.141-3.232-0.43
	c-0.969-0.289-1.82-0.734-2.553-1.328c-0.781-0.625-1.367-1.391-1.758-2.297s-0.586-1.953-0.586-3.141
	c0-2.109,0.568-3.836,1.707-5.172s2.76-2.008,4.865-2.008c1.311,0,2.4,0.422,3.273,1.258s1.311,1.922,1.311,3.25
	c0,0.5-0.063,0.953-0.188,1.359s-0.305,0.789-0.537,1.148c-0.264,0.391-0.588,0.68-0.971,0.867
	c-0.381,0.188-0.813,0.281-1.297,0.281c-0.328,0-0.652-0.047-0.973-0.148s-0.629-0.25-0.926-0.438
	c0.609-0.047,1.129-0.297,1.559-0.75s0.645-0.984,0.645-1.594c0-0.719-0.184-1.266-0.549-1.625
	c-0.367-0.363-0.916-0.547-1.646-0.547c-0.484,0-0.916,0.117-1.299,0.352c-0.381,0.238-0.713,0.59-0.992,1.059
	c-0.219,0.379-0.389,0.793-0.514,1.254c-0.125,0.465-0.188,0.945-0.188,1.445c0,1.316,0.441,2.406,1.324,3.277
	c0.881,0.871,1.979,1.301,3.289,1.301c0.859,0,1.633-0.188,2.318-0.563c0.688-0.375,1.279-0.938,1.779-1.688
	c0.453-0.672,0.797-1.398,1.031-2.18s0.352-1.625,0.352-2.531c0-2.125-0.637-3.836-1.908-5.141s-2.979-1.961-5.115-1.961
	c-1.297,0-2.432,0.266-3.406,0.797c-0.977,0.531-1.809,1.32-2.494,2.367c-0.578,0.871-1.01,1.883-1.299,3.027
	s-0.434,2.398-0.434,3.754c0,0.109,0.027,0.98,0.08,2.609c0.055,1.633,0.119,4.031,0.197,7.195l-2.527,0.375l-0.047,1.43
	l2.619-0.117v1.75l-2.689,0.285l0.117,1.723l2.572-0.352l0.068,1.563l-2.758,0.469l-0.047,1.68l2.805-0.492l0.047,1.859
	l-8.094,2.078l4.035-37.008l3.59,0.539l0.422,5.688c0.922-1.656,2.232-2.961,3.936-3.914c1.701-0.953,3.514-1.43,5.436-1.43
	c1.438,0,2.725,0.25,3.865,0.742s2.123,1.219,2.951,2.188c0.797,0.938,1.395,2,1.793,3.188S52.656,31.381,52.656,32.85z"/>
<path fill="#DDDDDD" d="M81.945,41.732c-0.391,0.395-0.742,0.742-1.055,1.051s-0.586,0.551-0.82,0.738l1.758,2.641l-1.641,0.961
	l-1.783-2.211c-0.625,0.379-1.289,0.695-1.992,0.953c-0.703,0.262-1.455,0.438-2.252,0.531l-0.047,2.766l-2.109-0.141l0.188-2.555
	c-0.719,0-1.484-0.07-2.297-0.219s-1.664-0.375-2.555-0.672l-1.314,2.813l-2.109-1.148l1.43-2.621
	c-0.766-0.422-1.467-0.91-2.1-1.465s-1.191-1.18-1.676-1.883l-2.508,1.59l-1.055-1.66l2.742-1.43
	c-0.359-0.75-0.641-1.52-0.844-2.309c-0.203-0.785-0.336-1.598-0.398-2.426L57,35.67l-0.727-2.063l3.234-0.723
	c0.078-0.875,0.211-1.66,0.398-2.363s0.43-1.328,0.727-1.875l-2.273-1.359l1.078-1.781l2.227,1.547
	c0.391-0.484,0.816-0.922,1.277-1.313s0.949-0.734,1.465-1.031l-1.922-2.789l2.109-1.031l1.547,2.977
	c0.5-0.156,0.953-0.281,1.359-0.375s0.766-0.164,1.078-0.211l0.633-3.07l1.664,0.516l-0.422,2.438c0.625,0,1.219,0.078,1.781,0.234
	s1.102,0.391,1.617,0.707l2.32-2.301l1.313,1.102l-2.203,2.398c0.344,0.328,0.664,0.719,0.961,1.184s0.563,0.973,0.797,1.535
	l2.742-0.914l0.469,1.738l-2.648,0.918c0.125,0.344,0.23,0.719,0.316,1.125s0.168,0.844,0.246,1.313l-10.906,1.891v0.258
	c0,1.141,0.121,2.211,0.363,3.219c0.242,1,0.613,1.957,1.113,2.859c0.594,1.078,1.307,1.883,2.135,2.422s1.76,0.805,2.791,0.805
	c1.063,0,2.18-0.281,3.354-0.844c1.172-0.566,2.416-1.43,3.729-2.594L81.945,41.732z M72.352,30.264
	c-0.063-0.691-0.316-1.211-0.762-1.555c-0.445-0.348-1.082-0.523-1.91-0.523c-1.016,0-1.961,0.309-2.836,0.922
	c-0.875,0.617-1.469,1.398-1.781,2.359L72.352,30.264z"/>
<path fill="#DDDDDD" d="M101.414,23.592l-0.352,2.438l-4.689,0.352l-0.352,2.828l5.041,0.141l-0.961,3.32l-4.48-0.281l-1.758,12.922
	l-3.441,0.625l-0.445-13.969l-4.219-0.305l0.703-2.641l3.469,0.07l-0.117-2.219l-4.477,0.352l-1.008-3.633h5.367l-0.234-8.154
	l8.625-1l-1.268,9.154H101.414z M94.453,25.639c0-0.516-0.121-0.898-0.363-1.148s-0.613-0.375-1.113-0.375
	c-0.516,0-0.898,0.125-1.148,0.375s-0.375,0.633-0.375,1.148c0,0.5,0.125,0.875,0.375,1.117s0.633,0.359,1.148,0.359
	c0.5,0,0.871-0.117,1.113-0.359S94.453,26.139,94.453,25.639z M95.305,19.857c0-0.641-0.16-1.117-0.48-1.438
	s-0.801-0.484-1.441-0.484s-1.121,0.164-1.441,0.484s-0.48,0.797-0.48,1.438c0,0.656,0.16,1.148,0.48,1.469s0.801,0.477,1.441,0.477
	s1.121-0.156,1.441-0.477S95.305,20.514,95.305,19.857z"/>
<path fill="#DDDDDD" d="M114.523,46.217l-9.844-1.266l3.656-22.828h4.406L114.523,46.217z M115.336,16.484l-0.586,1.428
	l-2.039-1.055c-0.221,0.281-0.463,0.508-0.73,0.68c-0.266,0.172-0.563,0.297-0.891,0.375l0.469,1.914l-1.598,0.234l-0.4-2
	c-0.25-0.047-0.498-0.133-0.74-0.266s-0.473-0.289-0.691-0.461l-1.551,1.43l-1.078-1.242l1.805-1.311
	c-0.156-0.297-0.246-0.609-0.27-0.938s0.004-0.68,0.082-1.055l-2.086-1.313l0.773-1.266l1.924,1.313
	c0.188-0.234,0.402-0.434,0.646-0.598c0.242-0.164,0.52-0.293,0.834-0.387l-0.4-2.766h1.504l0.094,2.578
	c0.346,0.047,0.658,0.125,0.941,0.234c0.281,0.109,0.547,0.25,0.799,0.422l1.643-1.313l1.078,1.078l-1.875,1.262
	c0.125,0.172,0.211,0.438,0.258,0.797s0.063,0.811,0.047,1.355L115.336,16.484z M111.75,40.482c0-0.594-0.211-1.102-0.633-1.523
	s-0.938-0.633-1.547-0.633c-0.578,0-1.078,0.211-1.5,0.633s-0.633,0.93-0.633,1.523s0.211,1.102,0.633,1.516s0.922,0.617,1.5,0.617
	c0.609,0,1.125-0.203,1.547-0.617S111.75,41.076,111.75,40.482z M111.766,34.139c0-0.547-0.137-0.961-0.41-1.242
	s-0.691-0.422-1.254-0.422c-0.578,0-1.008,0.141-1.289,0.422s-0.422,0.695-0.422,1.242c0,0.563,0.141,0.984,0.422,1.266
	s0.711,0.422,1.289,0.422c0.563,0,0.98-0.141,1.254-0.422S111.766,34.701,111.766,34.139z"/>
<path fill="#DDDDDD" d="M135.75,23.592l-0.352,2.438l-4.689,0.352l-0.352,2.828l5.041,0.141l-0.961,3.32l-4.48-0.281l-1.758,12.922
	l-3.441,0.625l-0.445-13.969l-4.219-0.305l0.703-2.641l3.469,0.07l-0.117-2.219l-4.477,0.352l-1.008-3.633h5.367l-0.234-8.154
	l8.625-1l-1.268,9.154H135.75z M128.789,25.639c0-0.516-0.121-0.898-0.363-1.148s-0.613-0.375-1.113-0.375
	c-0.516,0-0.898,0.125-1.148,0.375s-0.375,0.633-0.375,1.148c0,0.5,0.125,0.875,0.375,1.117s0.633,0.359,1.148,0.359
	c0.5,0,0.871-0.117,1.113-0.359S128.789,26.139,128.789,25.639z M129.641,19.857c0-0.641-0.16-1.117-0.48-1.438
	s-0.801-0.484-1.441-0.484s-1.121,0.164-1.441,0.484s-0.48,0.797-0.48,1.438c0,0.656,0.16,1.148,0.48,1.469s0.801,0.477,1.441,0.477
	s1.121-0.156,1.441-0.477S129.641,20.514,129.641,19.857z"/>
<path fill="#DDDDDD" d="M164.453,42.639l-9.016,1.609c0.125-4.777,0.211-8.039,0.258-9.781c0.047-1.738,0.07-2.828,0.07-3.266
	c0-1.453-0.234-2.539-0.703-3.266c-0.467-0.727-1.176-1.094-2.129-1.094c-0.889,0-1.82,0.406-2.795,1.211
	c-0.975,0.801-1.992,2.008-3.053,3.617l-0.68,12.125l-4.25,0.578l-2.516-21.5l8.031-1.688l-0.352,6.75
	c1.154-1.547,2.379-2.711,3.674-3.5s2.654-1.188,4.072-1.188c1.873,0,3.406,0.703,4.6,2.109s2.072,3.523,2.635,6.344L164.453,42.639
	z M160.594,33.451c0-0.484-0.125-0.852-0.375-1.109s-0.625-0.391-1.125-0.391s-0.879,0.133-1.137,0.391s-0.387,0.625-0.387,1.109
	c0,0.516,0.129,0.906,0.387,1.164s0.637,0.383,1.137,0.383s0.875-0.125,1.125-0.383S160.594,33.967,160.594,33.451z M161.461,39.17
	c0-0.531-0.195-0.977-0.586-1.344s-0.844-0.555-1.359-0.555c-0.656,0-1.145,0.164-1.465,0.484s-0.48,0.789-0.48,1.414
	c0,0.641,0.16,1.125,0.48,1.445s0.809,0.477,1.465,0.477c0.516,0,0.969-0.18,1.359-0.547S161.461,39.717,161.461,39.17z"/>
<path fill="#DDDDDD" d="M177.852,46.217l-9.844-1.266l3.656-22.828h4.406L177.852,46.217z M178.664,16.484l-0.586,1.428
	l-2.039-1.055c-0.221,0.281-0.463,0.508-0.73,0.68c-0.266,0.172-0.563,0.297-0.891,0.375l0.469,1.914l-1.598,0.234l-0.4-2
	c-0.25-0.047-0.498-0.133-0.74-0.266s-0.473-0.289-0.691-0.461l-1.551,1.43l-1.078-1.242l1.805-1.311
	c-0.156-0.297-0.246-0.609-0.27-0.938s0.004-0.68,0.082-1.055l-2.086-1.313l0.773-1.266l1.924,1.313
	c0.188-0.234,0.402-0.434,0.646-0.598c0.242-0.164,0.52-0.293,0.834-0.387l-0.4-2.766h1.504l0.094,2.578
	c0.346,0.047,0.658,0.125,0.941,0.234c0.281,0.109,0.547,0.25,0.799,0.422l1.643-1.313l1.078,1.078l-1.875,1.262
	c0.125,0.172,0.211,0.438,0.258,0.797s0.063,0.811,0.047,1.355L178.664,16.484z M175.078,40.482c0-0.594-0.211-1.102-0.633-1.523
	s-0.938-0.633-1.547-0.633c-0.578,0-1.078,0.211-1.5,0.633s-0.633,0.93-0.633,1.523s0.211,1.102,0.633,1.516s0.922,0.617,1.5,0.617
	c0.609,0,1.125-0.203,1.547-0.617S175.078,41.076,175.078,40.482z M175.094,34.139c0-0.547-0.137-0.961-0.41-1.242
	s-0.691-0.422-1.254-0.422c-0.578,0-1.008,0.141-1.289,0.422s-0.422,0.695-0.422,1.242c0,0.563,0.141,0.984,0.422,1.266
	s0.711,0.422,1.289,0.422c0.563,0,0.98-0.141,1.254-0.422S175.094,34.701,175.094,34.139z"/>
<path fill="#DDDDDD" d="M193.281,40.139c0,1.188-0.414,2.211-1.242,3.063s-1.836,1.273-3.023,1.273c-1.172,0-2.18-0.422-3.023-1.273
	s-1.266-1.875-1.266-3.063s0.418-2.203,1.254-3.055s1.848-1.281,3.035-1.281s2.195,0.43,3.023,1.281S193.281,38.951,193.281,40.139z
	 M190.523,39.545c0-0.547-0.191-1.039-0.574-1.484s-0.84-0.672-1.371-0.672c-0.516,0-0.961,0.227-1.336,0.672
	s-0.563,0.938-0.563,1.484s0.184,1.047,0.551,1.492s0.816,0.664,1.348,0.664c0.547,0,1.008-0.219,1.383-0.664
	S190.523,40.092,190.523,39.545z"/>
<path fill="#DDDDDD" d="M224.148,42.639l-9.016,1.609c0.125-4.777,0.211-8.039,0.258-9.781c0.047-1.738,0.07-2.828,0.07-3.266
	c0-1.453-0.234-2.539-0.703-3.266c-0.467-0.727-1.176-1.094-2.129-1.094c-0.889,0-1.82,0.406-2.795,1.211
	c-0.975,0.801-1.992,2.008-3.053,3.617l-0.68,12.125l-4.25,0.578l-2.516-21.5l8.031-1.688l-0.352,6.75
	c1.154-1.547,2.379-2.711,3.674-3.5s2.654-1.188,4.072-1.188c1.873,0,3.406,0.703,4.6,2.109s2.072,3.523,2.635,6.344L224.148,42.639
	z M220.289,33.451c0-0.484-0.125-0.852-0.375-1.109s-0.625-0.391-1.125-0.391s-0.879,0.133-1.137,0.391s-0.387,0.625-0.387,1.109
	c0,0.516,0.129,0.906,0.387,1.164s0.637,0.383,1.137,0.383s0.875-0.125,1.125-0.383S220.289,33.967,220.289,33.451z M221.156,39.17
	c0-0.531-0.195-0.977-0.586-1.344s-0.844-0.555-1.359-0.555c-0.656,0-1.145,0.164-1.465,0.484s-0.48,0.789-0.48,1.414
	c0,0.641,0.16,1.125,0.48,1.445s0.809,0.477,1.465,0.477c0.516,0,0.969-0.18,1.359-0.547S221.156,39.717,221.156,39.17z"/>
<path fill="#DDDDDD" d="M253.109,41.732c-0.391,0.395-0.742,0.742-1.055,1.051s-0.586,0.551-0.82,0.738l1.758,2.641l-1.641,0.961
	l-1.781-2.211c-0.625,0.379-1.289,0.695-1.992,0.953c-0.703,0.262-1.457,0.438-2.254,0.531l-0.047,2.766l-2.109-0.141l0.188-2.555
	c-0.719,0-1.484-0.07-2.297-0.219s-1.664-0.375-2.555-0.672l-1.316,2.813l-2.109-1.148l1.43-2.621
	c-0.766-0.422-1.465-0.91-2.098-1.465s-1.191-1.18-1.676-1.883l-2.508,1.59l-1.055-1.66l2.742-1.43
	c-0.359-0.75-0.641-1.52-0.844-2.309c-0.203-0.785-0.336-1.598-0.398-2.426l-2.508,0.633l-0.727-2.063l3.234-0.723
	c0.078-0.875,0.211-1.66,0.398-2.363s0.43-1.328,0.727-1.875l-2.273-1.359l1.078-1.781l2.227,1.547
	c0.391-0.484,0.816-0.922,1.277-1.313s0.949-0.734,1.465-1.031l-1.922-2.789l2.109-1.031l1.547,2.977
	c0.5-0.156,0.953-0.281,1.359-0.375s0.766-0.164,1.078-0.211l0.633-3.07l1.664,0.516l-0.422,2.438c0.625,0,1.219,0.078,1.781,0.234
	s1.102,0.391,1.617,0.707l2.32-2.301l1.313,1.102l-2.203,2.398c0.344,0.328,0.664,0.719,0.961,1.184s0.563,0.973,0.797,1.535
	l2.742-0.914l0.469,1.738l-2.648,0.918c0.125,0.344,0.23,0.719,0.316,1.125s0.168,0.844,0.246,1.313l-10.906,1.891v0.258
	c0,1.141,0.121,2.211,0.363,3.219c0.242,1,0.613,1.957,1.113,2.859c0.594,1.078,1.305,1.883,2.133,2.422s1.762,0.805,2.793,0.805
	c1.063,0,2.18-0.281,3.355-0.844c1.172-0.566,2.414-1.43,3.727-2.594L253.109,41.732z M243.516,30.264
	c-0.063-0.691-0.316-1.211-0.762-1.555c-0.445-0.348-1.082-0.523-1.91-0.523c-1.016,0-1.961,0.309-2.836,0.922
	c-0.875,0.617-1.469,1.398-1.781,2.359L243.516,30.264z"/>
<path fill="#DDDDDD" d="M283.438,32.389c0,1.891-0.328,3.586-0.984,5.086s-1.656,2.805-3,3.914
	c-1.262,1.047-2.684,1.836-4.262,2.359c-1.574,0.523-3.332,0.781-5.27,0.781c-2.031,0-3.867-0.398-5.516-1.195s-3.098-2-4.344-3.609
	c-1.141-1.457-1.988-3.086-2.543-4.883s-0.832-3.762-0.832-5.891c0-2.797,0.441-5.516,1.32-8.164
	c0.883-2.648,2.199-5.232,3.949-7.748c1.637-2.344,3.527-4.434,5.668-6.27c2.137-1.836,4.516-3.426,7.141-4.77l4.141,7.359
	c-2.512,1.031-4.797,2.264-6.859,3.695c-2.059,1.43-3.898,3.061-5.523,4.889c-1.871,2.109-3.277,4.313-4.211,6.602
	c-0.938,2.293-1.406,4.664-1.406,7.117c0,1.238,0.188,2.398,0.563,3.484s0.93,2.094,1.664,3.016c0.793,1.016,1.688,1.773,2.68,2.273
	s2.094,0.75,3.313,0.75c2.57,0,4.617-0.813,6.148-2.438c1.523-1.633,2.289-3.75,2.289-6.367c0-0.938-0.121-1.805-0.363-2.594
	s-0.621-1.531-1.137-2.219c-0.543-0.719-1.184-1.262-1.918-1.625c-0.73-0.359-1.559-0.539-2.48-0.539
	c-1.324,0-2.414,0.391-3.266,1.164c-0.848,0.77-1.273,1.805-1.273,3.102c0,0.918,0.195,1.605,0.586,2.055
	c0.391,0.453,0.973,0.68,1.754,0.68c0.512,0,0.949-0.203,1.309-0.609s0.539-0.883,0.539-1.43c0-0.219-0.027-0.414-0.082-0.594
	s-0.152-0.352-0.293-0.508c0.813,0.234,1.43,0.633,1.844,1.188c0.418,0.555,0.625,1.266,0.625,2.141c0,0.523-0.109,1-0.328,1.438
	s-0.551,0.836-0.988,1.18c-0.41,0.313-0.844,0.543-1.309,0.695c-0.461,0.148-0.969,0.219-1.516,0.219
	c-0.781,0-1.492-0.148-2.133-0.453s-1.211-0.773-1.711-1.398c-0.469-0.578-0.813-1.211-1.031-1.906s-0.328-1.453-0.328-2.266
	c0-1.297,0.227-2.469,0.68-3.516s1.125-1.984,2.016-2.813c0.863-0.797,1.844-1.391,2.945-1.781s2.297-0.586,3.578-0.586
	c1.516,0,2.891,0.273,4.117,0.824c1.227,0.547,2.316,1.371,3.273,2.465c0.922,1.063,1.613,2.234,2.074,3.508
	S283.438,30.873,283.438,32.389z"/>
<path fill="#DDDDDD" d="M302.484,23.592l-0.352,2.438l-4.688,0.352l-0.352,2.828l5.039,0.141l-0.961,3.32l-4.48-0.281l-1.758,12.922
	l-3.441,0.625l-0.445-13.969l-4.219-0.305l0.703-2.641l3.469,0.07l-0.117-2.219l-4.477,0.352l-1.008-3.633h5.367l-0.234-8.154
	l8.625-1l-1.266,9.154H302.484z M295.523,25.639c0-0.516-0.121-0.898-0.363-1.148s-0.613-0.375-1.113-0.375
	c-0.516,0-0.898,0.125-1.148,0.375s-0.375,0.633-0.375,1.148c0,0.5,0.125,0.875,0.375,1.117s0.633,0.359,1.148,0.359
	c0.5,0,0.871-0.117,1.113-0.359S295.523,26.139,295.523,25.639z M296.375,19.857c0-0.641-0.16-1.117-0.48-1.438
	s-0.801-0.484-1.441-0.484s-1.121,0.164-1.441,0.484s-0.48,0.797-0.48,1.438c0,0.656,0.16,1.148,0.48,1.469s0.801,0.477,1.441,0.477
	s1.121-0.156,1.441-0.477S296.375,20.514,296.375,19.857z"/>
<path fill="#DDDDDD" d="M329.125,41.127l-0.023,1.262c-2.422,1.102-4.82,1.914-7.188,2.457s-4.707,0.809-7.02,0.809
	c-1.281,0-2.457-0.125-3.52-0.375s-2.016-0.617-2.859-1.102c-1-0.578-1.754-1.32-2.262-2.227s-0.762-1.965-0.762-3.172
	c0-2.117,1.066-4.008,3.195-5.676c2.133-1.668,5.313-3.105,9.547-4.324c-0.344-1-0.926-1.766-1.75-2.281
	c-0.82-0.52-1.859-0.781-3.129-0.781c-1.359,0-2.594,0.281-3.707,0.836c-1.109,0.555-2.094,1.367-2.953,2.445l-1.234-1.203
	c1.313-2.008,2.938-3.523,4.879-4.547c1.938-1.016,4.199-1.531,6.777-1.531c2.094,0,3.938,0.586,5.523,1.746s2.93,2.91,4.023,5.23
	c0.859,1.828,1.496,3.773,1.91,5.844S329.172,38.803,329.125,41.127z M319.906,39.404c0-1.414-0.066-2.82-0.203-4.211
	c-0.133-1.383-0.344-2.758-0.625-4.117c-1.469,0.422-2.793,0.871-3.973,1.348c-1.18,0.473-2.207,0.98-3.082,1.508l2.398,9.66
	c1.25,0,2.328-0.07,3.234-0.211s1.633-0.363,2.18-0.676c0.031-0.559,0.051-1.113,0.059-1.66S319.906,39.951,319.906,39.404z
	 M325.492,32.982c0-0.563-0.137-0.984-0.41-1.266s-0.691-0.422-1.254-0.422s-0.988,0.141-1.277,0.422s-0.434,0.703-0.434,1.266
	s0.145,0.984,0.434,1.258s0.715,0.406,1.277,0.406s0.98-0.133,1.254-0.406S325.492,33.545,325.492,32.982z M326.453,39.295
	c0-0.594-0.207-1.102-0.621-1.523s-0.926-0.633-1.535-0.633c-0.594,0-1.105,0.203-1.535,0.609s-0.645,0.922-0.645,1.547
	c0,0.609,0.215,1.117,0.645,1.523s0.941,0.609,1.535,0.609c0.609,0,1.121-0.203,1.535-0.617S326.453,39.889,326.453,39.295z"/>
<path fill="#DDDDDD" d="M343.117,40.139c0,1.188-0.414,2.211-1.242,3.063s-1.836,1.273-3.023,1.273c-1.172,0-2.18-0.422-3.023-1.273
	s-1.266-1.875-1.266-3.063s0.418-2.203,1.254-3.055s1.848-1.281,3.035-1.281s2.195,0.43,3.023,1.281S343.117,38.951,343.117,40.139z
	 M340.359,39.545c0-0.547-0.191-1.039-0.574-1.484s-0.84-0.672-1.371-0.672c-0.516,0-0.961,0.227-1.336,0.672
	s-0.563,0.938-0.563,1.484s0.184,1.047,0.551,1.492s0.816,0.664,1.348,0.664c0.547,0,1.008-0.219,1.383-0.664
	S340.359,40.092,340.359,39.545z"/>
<path fill="#FF9900" d="M25.664,39.127l-0.023,1.262c-2.422,1.102-4.818,1.914-7.186,2.457c-2.369,0.543-4.709,0.809-7.021,0.809
	c-1.281,0-2.455-0.125-3.518-0.375S5.9,42.662,5.057,42.178c-1.002-0.578-1.756-1.32-2.264-2.227s-0.762-1.965-0.762-3.172
	c0-2.117,1.066-4.008,3.197-5.676s5.313-3.105,9.545-4.324c-0.344-1-0.926-1.766-1.748-2.281c-0.82-0.52-1.863-0.781-3.131-0.781
	c-1.359,0-2.594,0.281-3.705,0.836c-1.109,0.555-2.096,1.367-2.955,2.445L2,25.795c1.314-2.008,2.939-3.523,4.879-4.547
	c1.938-1.016,4.197-1.531,6.777-1.531c2.094,0,3.936,0.586,5.523,1.746c1.586,1.16,2.928,2.91,4.021,5.23
	c0.859,1.828,1.498,3.773,1.912,5.844S25.711,36.803,25.664,39.127z M16.445,37.404c0-1.414-0.066-2.82-0.201-4.211
	c-0.135-1.383-0.344-2.758-0.627-4.117c-1.469,0.422-2.793,0.871-3.973,1.348c-1.18,0.473-2.207,0.98-3.082,1.508l2.398,9.66
	c1.25,0,2.328-0.07,3.234-0.211s1.633-0.363,2.18-0.676c0.031-0.559,0.051-1.113,0.059-1.66S16.445,37.951,16.445,37.404z
	 M22.031,30.982c0-0.563-0.137-0.984-0.41-1.266s-0.691-0.422-1.254-0.422s-0.988,0.141-1.277,0.422s-0.434,0.703-0.434,1.266
	s0.145,0.984,0.434,1.258s0.715,0.406,1.277,0.406s0.98-0.133,1.254-0.406S22.031,31.545,22.031,30.982z M22.992,37.295
	c0-0.594-0.207-1.102-0.621-1.523s-0.926-0.633-1.535-0.633c-0.594,0-1.105,0.203-1.535,0.609s-0.645,0.922-0.645,1.547
	c0,0.609,0.215,1.117,0.645,1.523s0.941,0.609,1.535,0.609c0.609,0,1.121-0.203,1.535-0.617S22.992,37.889,22.992,37.295z"/>
<path fill="#FF3333" d="M54.656,30.85c0,1.469-0.215,2.82-0.645,4.055s-1.066,2.359-1.91,3.375
	c-0.904,1.094-1.939,1.914-3.104,2.461c-1.162,0.547-2.463,0.82-3.9,0.82c-1.188,0-2.266-0.141-3.232-0.43
	c-0.969-0.289-1.82-0.734-2.553-1.328c-0.781-0.625-1.367-1.391-1.758-2.297s-0.586-1.953-0.586-3.141
	c0-2.109,0.568-3.836,1.707-5.172s2.76-2.008,4.865-2.008c1.311,0,2.4,0.422,3.273,1.258s1.311,1.922,1.311,3.25
	c0,0.5-0.063,0.953-0.188,1.359s-0.305,0.789-0.537,1.148c-0.264,0.391-0.588,0.68-0.971,0.867
	c-0.381,0.188-0.813,0.281-1.297,0.281c-0.328,0-0.652-0.047-0.973-0.148s-0.629-0.25-0.926-0.438
	c0.609-0.047,1.129-0.297,1.559-0.75s0.645-0.984,0.645-1.594c0-0.719-0.184-1.266-0.549-1.625
	c-0.367-0.363-0.916-0.547-1.646-0.547c-0.484,0-0.916,0.117-1.299,0.352c-0.381,0.238-0.713,0.59-0.992,1.059
	c-0.219,0.379-0.389,0.793-0.514,1.254c-0.125,0.465-0.188,0.945-0.188,1.445c0,1.316,0.441,2.406,1.324,3.277
	c0.881,0.871,1.979,1.301,3.289,1.301c0.859,0,1.633-0.188,2.318-0.563c0.688-0.375,1.279-0.938,1.779-1.688
	c0.453-0.672,0.797-1.398,1.031-2.18s0.352-1.625,0.352-2.531c0-2.125-0.637-3.836-1.908-5.141s-2.979-1.961-5.115-1.961
	c-1.297,0-2.432,0.266-3.406,0.797c-0.977,0.531-1.809,1.32-2.494,2.367c-0.578,0.871-1.01,1.883-1.299,3.027
	s-0.434,2.398-0.434,3.754c0,0.109,0.027,0.98,0.08,2.609c0.055,1.633,0.119,4.031,0.197,7.195l-2.527,0.375l-0.047,1.43
	l2.619-0.117v1.75l-2.689,0.285l0.117,1.723l2.572-0.352l0.068,1.563l-2.758,0.469l-0.047,1.68l2.805-0.492l0.047,1.859
	l-8.094,2.078l4.035-37.008l3.59,0.539l0.422,5.688c0.922-1.656,2.232-2.961,3.936-3.914c1.701-0.953,3.514-1.43,5.436-1.43
	c1.438,0,2.725,0.25,3.865,0.742s2.123,1.219,2.951,2.188c0.797,0.938,1.395,2,1.793,3.188S54.656,29.381,54.656,30.85z"/>
<path fill="#FF9900" d="M83.945,39.732c-0.391,0.395-0.742,0.742-1.055,1.051s-0.586,0.551-0.82,0.738l1.758,2.641l-1.641,0.961
	l-1.783-2.211c-0.625,0.379-1.289,0.695-1.992,0.953c-0.703,0.262-1.455,0.438-2.252,0.531l-0.047,2.766l-2.109-0.141l0.188-2.555
	c-0.719,0-1.484-0.07-2.297-0.219s-1.664-0.375-2.555-0.672l-1.314,2.813l-2.109-1.148l1.43-2.621
	c-0.766-0.422-1.467-0.91-2.1-1.465s-1.191-1.18-1.676-1.883l-2.508,1.59l-1.055-1.66l2.742-1.43
	c-0.359-0.75-0.641-1.52-0.844-2.309c-0.203-0.785-0.336-1.598-0.398-2.426L59,33.67l-0.727-2.063l3.234-0.723
	c0.078-0.875,0.211-1.66,0.398-2.363s0.43-1.328,0.727-1.875l-2.273-1.359l1.078-1.781l2.227,1.547
	c0.391-0.484,0.816-0.922,1.277-1.313s0.949-0.734,1.465-1.031l-1.922-2.789l2.109-1.031l1.547,2.977
	c0.5-0.156,0.953-0.281,1.359-0.375s0.766-0.164,1.078-0.211l0.633-3.07l1.664,0.516l-0.422,2.438c0.625,0,1.219,0.078,1.781,0.234
	s1.102,0.391,1.617,0.707l2.32-2.301l1.313,1.102l-2.203,2.398c0.344,0.328,0.664,0.719,0.961,1.184s0.563,0.973,0.797,1.535
	l2.742-0.914l0.469,1.738l-2.648,0.918c0.125,0.344,0.23,0.719,0.316,1.125s0.168,0.844,0.246,1.313l-10.906,1.891v0.258
	c0,1.141,0.121,2.211,0.363,3.219c0.242,1,0.613,1.957,1.113,2.859c0.594,1.078,1.307,1.883,2.135,2.422s1.76,0.805,2.791,0.805
	c1.063,0,2.18-0.281,3.354-0.844c1.172-0.566,2.416-1.43,3.729-2.594L83.945,39.732z M74.352,28.264
	c-0.063-0.691-0.316-1.211-0.762-1.555c-0.445-0.348-1.082-0.523-1.91-0.523c-1.016,0-1.961,0.309-2.836,0.922
	c-0.875,0.617-1.469,1.398-1.781,2.359L74.352,28.264z"/>
<path fill="#FF9900" d="M103.414,21.592l-0.352,2.438l-4.689,0.352l-0.352,2.828l5.041,0.141l-0.961,3.32l-4.48-0.281l-1.758,12.922
	l-3.441,0.625l-0.445-13.969l-4.219-0.305l0.703-2.641l3.469,0.07l-0.117-2.219l-4.477,0.352l-1.008-3.633h5.367l-0.234-8.154
	l8.625-1l-1.268,9.154H103.414z M96.453,23.639c0-0.516-0.121-0.898-0.363-1.148s-0.613-0.375-1.113-0.375
	c-0.516,0-0.898,0.125-1.148,0.375s-0.375,0.633-0.375,1.148c0,0.5,0.125,0.875,0.375,1.117s0.633,0.359,1.148,0.359
	c0.5,0,0.871-0.117,1.113-0.359S96.453,24.139,96.453,23.639z M97.305,17.857c0-0.641-0.16-1.117-0.48-1.438
	s-0.801-0.484-1.441-0.484s-1.121,0.164-1.441,0.484s-0.48,0.797-0.48,1.438c0,0.656,0.16,1.148,0.48,1.469s0.801,0.477,1.441,0.477
	s1.121-0.156,1.441-0.477S97.305,18.514,97.305,17.857z"/>
<path fill="#FF9900" d="M116.523,44.217l-9.844-1.266l3.656-22.828h4.406L116.523,44.217z M117.336,14.484l-0.586,1.428
	l-2.039-1.055c-0.221,0.281-0.463,0.508-0.73,0.68c-0.266,0.172-0.563,0.297-0.891,0.375l0.469,1.914l-1.598,0.234l-0.4-2
	c-0.25-0.047-0.498-0.133-0.74-0.266s-0.473-0.289-0.691-0.461l-1.551,1.43l-1.078-1.242l1.805-1.311
	c-0.156-0.297-0.246-0.609-0.27-0.938s0.004-0.68,0.082-1.055l-2.086-1.313l0.773-1.266l1.924,1.313
	c0.188-0.234,0.402-0.434,0.646-0.598c0.242-0.164,0.52-0.293,0.834-0.387l-0.4-2.766h1.504l0.094,2.578
	c0.346,0.047,0.658,0.125,0.941,0.234c0.281,0.109,0.547,0.25,0.799,0.422l1.643-1.313l1.078,1.078l-1.875,1.262
	c0.125,0.172,0.211,0.438,0.258,0.797s0.063,0.811,0.047,1.355L117.336,14.484z M113.75,38.482c0-0.594-0.211-1.102-0.633-1.523
	s-0.938-0.633-1.547-0.633c-0.578,0-1.078,0.211-1.5,0.633s-0.633,0.93-0.633,1.523s0.211,1.102,0.633,1.516s0.922,0.617,1.5,0.617
	c0.609,0,1.125-0.203,1.547-0.617S113.75,39.076,113.75,38.482z M113.766,32.139c0-0.547-0.137-0.961-0.41-1.242
	s-0.691-0.422-1.254-0.422c-0.578,0-1.008,0.141-1.289,0.422s-0.422,0.695-0.422,1.242c0,0.563,0.141,0.984,0.422,1.266
	s0.711,0.422,1.289,0.422c0.563,0,0.98-0.141,1.254-0.422S113.766,32.701,113.766,32.139z"/>
<path fill="#FF9900" d="M137.75,21.592l-0.352,2.438l-4.689,0.352l-0.352,2.828l5.041,0.141l-0.961,3.32l-4.48-0.281l-1.758,12.922
	l-3.441,0.625l-0.445-13.969l-4.219-0.305l0.703-2.641l3.469,0.07l-0.117-2.219l-4.477,0.352l-1.008-3.633h5.367l-0.234-8.154
	l8.625-1l-1.268,9.154H137.75z M130.789,23.639c0-0.516-0.121-0.898-0.363-1.148s-0.613-0.375-1.113-0.375
	c-0.516,0-0.898,0.125-1.148,0.375s-0.375,0.633-0.375,1.148c0,0.5,0.125,0.875,0.375,1.117s0.633,0.359,1.148,0.359
	c0.5,0,0.871-0.117,1.113-0.359S130.789,24.139,130.789,23.639z M131.641,17.857c0-0.641-0.16-1.117-0.48-1.438
	s-0.801-0.484-1.441-0.484s-1.121,0.164-1.441,0.484s-0.48,0.797-0.48,1.438c0,0.656,0.16,1.148,0.48,1.469s0.801,0.477,1.441,0.477
	s1.121-0.156,1.441-0.477S131.641,18.514,131.641,17.857z"/>
<path fill="#FF9900" d="M166.453,40.639l-9.016,1.609c0.125-4.777,0.211-8.039,0.258-9.781c0.047-1.738,0.07-2.828,0.07-3.266
	c0-1.453-0.234-2.539-0.703-3.266c-0.467-0.727-1.176-1.094-2.129-1.094c-0.889,0-1.82,0.406-2.795,1.211
	c-0.975,0.801-1.992,2.008-3.053,3.617l-0.68,12.125l-4.25,0.578l-2.516-21.5l8.031-1.688l-0.352,6.75
	c1.154-1.547,2.379-2.711,3.674-3.5s2.654-1.188,4.072-1.188c1.873,0,3.406,0.703,4.6,2.109s2.072,3.523,2.635,6.344L166.453,40.639
	z M162.594,31.451c0-0.484-0.125-0.852-0.375-1.109s-0.625-0.391-1.125-0.391s-0.879,0.133-1.137,0.391s-0.387,0.625-0.387,1.109
	c0,0.516,0.129,0.906,0.387,1.164s0.637,0.383,1.137,0.383s0.875-0.125,1.125-0.383S162.594,31.967,162.594,31.451z M163.461,37.17
	c0-0.531-0.195-0.977-0.586-1.344s-0.844-0.555-1.359-0.555c-0.656,0-1.145,0.164-1.465,0.484s-0.48,0.789-0.48,1.414
	c0,0.641,0.16,1.125,0.48,1.445s0.809,0.477,1.465,0.477c0.516,0,0.969-0.18,1.359-0.547S163.461,37.717,163.461,37.17z"/>
<path fill="#FF9900" d="M179.852,44.217l-9.844-1.266l3.656-22.828h4.406L179.852,44.217z M180.664,14.484l-0.586,1.428
	l-2.039-1.055c-0.221,0.281-0.463,0.508-0.73,0.68c-0.266,0.172-0.563,0.297-0.891,0.375l0.469,1.914l-1.598,0.234l-0.4-2
	c-0.25-0.047-0.498-0.133-0.74-0.266s-0.473-0.289-0.691-0.461l-1.551,1.43l-1.078-1.242l1.805-1.311
	c-0.156-0.297-0.246-0.609-0.27-0.938s0.004-0.68,0.082-1.055l-2.086-1.313l0.773-1.266l1.924,1.313
	c0.188-0.234,0.402-0.434,0.646-0.598c0.242-0.164,0.52-0.293,0.834-0.387l-0.4-2.766h1.504l0.094,2.578
	c0.346,0.047,0.658,0.125,0.941,0.234c0.281,0.109,0.547,0.25,0.799,0.422l1.643-1.313l1.078,1.078l-1.875,1.262
	c0.125,0.172,0.211,0.438,0.258,0.797s0.063,0.811,0.047,1.355L180.664,14.484z M177.078,38.482c0-0.594-0.211-1.102-0.633-1.523
	s-0.938-0.633-1.547-0.633c-0.578,0-1.078,0.211-1.5,0.633s-0.633,0.93-0.633,1.523s0.211,1.102,0.633,1.516s0.922,0.617,1.5,0.617
	c0.609,0,1.125-0.203,1.547-0.617S177.078,39.076,177.078,38.482z M177.094,32.139c0-0.547-0.137-0.961-0.41-1.242
	s-0.691-0.422-1.254-0.422c-0.578,0-1.008,0.141-1.289,0.422s-0.422,0.695-0.422,1.242c0,0.563,0.141,0.984,0.422,1.266
	s0.711,0.422,1.289,0.422c0.563,0,0.98-0.141,1.254-0.422S177.094,32.701,177.094,32.139z"/>
<path fill="#FF9900" d="M195.281,38.139c0,1.188-0.414,2.211-1.242,3.063s-1.836,1.273-3.023,1.273c-1.172,0-2.18-0.422-3.023-1.273
	s-1.266-1.875-1.266-3.063s0.418-2.203,1.254-3.055s1.848-1.281,3.035-1.281s2.195,0.43,3.023,1.281S195.281,36.951,195.281,38.139z
	 M192.523,37.545c0-0.547-0.191-1.039-0.574-1.484s-0.84-0.672-1.371-0.672c-0.516,0-0.961,0.227-1.336,0.672
	s-0.563,0.938-0.563,1.484s0.184,1.047,0.551,1.492s0.816,0.664,1.348,0.664c0.547,0,1.008-0.219,1.383-0.664
	S192.523,38.092,192.523,37.545z"/>
<path fill="#FF9900" d="M226.148,40.639l-9.016,1.609c0.125-4.777,0.211-8.039,0.258-9.781c0.047-1.738,0.07-2.828,0.07-3.266
	c0-1.453-0.234-2.539-0.703-3.266c-0.467-0.727-1.176-1.094-2.129-1.094c-0.889,0-1.82,0.406-2.795,1.211
	c-0.975,0.801-1.992,2.008-3.053,3.617l-0.68,12.125l-4.25,0.578l-2.516-21.5l8.031-1.688l-0.352,6.75
	c1.154-1.547,2.379-2.711,3.674-3.5s2.654-1.188,4.072-1.188c1.873,0,3.406,0.703,4.6,2.109s2.072,3.523,2.635,6.344L226.148,40.639
	z M222.289,31.451c0-0.484-0.125-0.852-0.375-1.109s-0.625-0.391-1.125-0.391s-0.879,0.133-1.137,0.391s-0.387,0.625-0.387,1.109
	c0,0.516,0.129,0.906,0.387,1.164s0.637,0.383,1.137,0.383s0.875-0.125,1.125-0.383S222.289,31.967,222.289,31.451z M223.156,37.17
	c0-0.531-0.195-0.977-0.586-1.344s-0.844-0.555-1.359-0.555c-0.656,0-1.145,0.164-1.465,0.484s-0.48,0.789-0.48,1.414
	c0,0.641,0.16,1.125,0.48,1.445s0.809,0.477,1.465,0.477c0.516,0,0.969-0.18,1.359-0.547S223.156,37.717,223.156,37.17z"/>
<path fill="#FF9900" d="M255.109,39.732c-0.391,0.395-0.742,0.742-1.055,1.051s-0.586,0.551-0.82,0.738l1.758,2.641l-1.641,0.961
	l-1.781-2.211c-0.625,0.379-1.289,0.695-1.992,0.953c-0.703,0.262-1.457,0.438-2.254,0.531l-0.047,2.766l-2.109-0.141l0.188-2.555
	c-0.719,0-1.484-0.07-2.297-0.219s-1.664-0.375-2.555-0.672l-1.316,2.813l-2.109-1.148l1.43-2.621
	c-0.766-0.422-1.465-0.91-2.098-1.465s-1.191-1.18-1.676-1.883l-2.508,1.59l-1.055-1.66l2.742-1.43
	c-0.359-0.75-0.641-1.52-0.844-2.309c-0.203-0.785-0.336-1.598-0.398-2.426l-2.508,0.633l-0.727-2.063l3.234-0.723
	c0.078-0.875,0.211-1.66,0.398-2.363s0.43-1.328,0.727-1.875l-2.273-1.359l1.078-1.781l2.227,1.547
	c0.391-0.484,0.816-0.922,1.277-1.313s0.949-0.734,1.465-1.031l-1.922-2.789l2.109-1.031l1.547,2.977
	c0.5-0.156,0.953-0.281,1.359-0.375s0.766-0.164,1.078-0.211l0.633-3.07l1.664,0.516l-0.422,2.438c0.625,0,1.219,0.078,1.781,0.234
	s1.102,0.391,1.617,0.707l2.32-2.301l1.313,1.102l-2.203,2.398c0.344,0.328,0.664,0.719,0.961,1.184s0.563,0.973,0.797,1.535
	l2.742-0.914l0.469,1.738l-2.648,0.918c0.125,0.344,0.23,0.719,0.316,1.125s0.168,0.844,0.246,1.313l-10.906,1.891v0.258
	c0,1.141,0.121,2.211,0.363,3.219c0.242,1,0.613,1.957,1.113,2.859c0.594,1.078,1.305,1.883,2.133,2.422s1.762,0.805,2.793,0.805
	c1.063,0,2.18-0.281,3.355-0.844c1.172-0.566,2.414-1.43,3.727-2.594L255.109,39.732z M245.516,28.264
	c-0.063-0.691-0.316-1.211-0.762-1.555c-0.445-0.348-1.082-0.523-1.91-0.523c-1.016,0-1.961,0.309-2.836,0.922
	c-0.875,0.617-1.469,1.398-1.781,2.359L245.516,28.264z"/>
<path fill="#009933" d="M285.438,30.389c0,1.891-0.328,3.586-0.984,5.086s-1.656,2.805-3,3.914
	c-1.262,1.047-2.684,1.836-4.262,2.359c-1.574,0.523-3.332,0.781-5.27,0.781c-2.031,0-3.867-0.398-5.516-1.195s-3.098-2-4.344-3.609
	c-1.141-1.457-1.988-3.086-2.543-4.883s-0.832-3.762-0.832-5.891c0-2.797,0.441-5.516,1.32-8.164
	c0.883-2.648,2.199-5.232,3.949-7.748c1.637-2.344,3.527-4.434,5.668-6.27c2.137-1.836,4.516-3.426,7.141-4.77l4.141,7.359
	c-2.512,1.031-4.797,2.264-6.859,3.695c-2.059,1.43-3.898,3.061-5.523,4.889c-1.871,2.109-3.277,4.313-4.211,6.602
	c-0.938,2.293-1.406,4.664-1.406,7.117c0,1.238,0.188,2.398,0.563,3.484s0.93,2.094,1.664,3.016c0.793,1.016,1.688,1.773,2.68,2.273
	s2.094,0.75,3.313,0.75c2.57,0,4.617-0.813,6.148-2.438c1.523-1.633,2.289-3.75,2.289-6.367c0-0.938-0.121-1.805-0.363-2.594
	s-0.621-1.531-1.137-2.219c-0.543-0.719-1.184-1.262-1.918-1.625c-0.73-0.359-1.559-0.539-2.48-0.539
	c-1.324,0-2.414,0.391-3.266,1.164c-0.848,0.77-1.273,1.805-1.273,3.102c0,0.918,0.195,1.605,0.586,2.055
	c0.391,0.453,0.973,0.68,1.754,0.68c0.512,0,0.949-0.203,1.309-0.609s0.539-0.883,0.539-1.43c0-0.219-0.027-0.414-0.082-0.594
	s-0.152-0.352-0.293-0.508c0.813,0.234,1.43,0.633,1.844,1.188c0.418,0.555,0.625,1.266,0.625,2.141c0,0.523-0.109,1-0.328,1.438
	s-0.551,0.836-0.988,1.18c-0.41,0.313-0.844,0.543-1.309,0.695c-0.461,0.148-0.969,0.219-1.516,0.219
	c-0.781,0-1.492-0.148-2.133-0.453s-1.211-0.773-1.711-1.398c-0.469-0.578-0.813-1.211-1.031-1.906s-0.328-1.453-0.328-2.266
	c0-1.297,0.227-2.469,0.68-3.516s1.125-1.984,2.016-2.813c0.863-0.797,1.844-1.391,2.945-1.781s2.297-0.586,3.578-0.586
	c1.516,0,2.891,0.273,4.117,0.824c1.227,0.547,2.316,1.371,3.273,2.465c0.922,1.063,1.613,2.234,2.074,3.508
	S285.438,28.873,285.438,30.389z"/>
<path fill="#FF9900" d="M304.484,21.592l-0.352,2.438l-4.688,0.352l-0.352,2.828l5.039,0.141l-0.961,3.32l-4.48-0.281l-1.758,12.922
	l-3.441,0.625l-0.445-13.969l-4.219-0.305l0.703-2.641l3.469,0.07l-0.117-2.219l-4.477,0.352l-1.008-3.633h5.367l-0.234-8.154
	l8.625-1l-1.266,9.154H304.484z M297.523,23.639c0-0.516-0.121-0.898-0.363-1.148s-0.613-0.375-1.113-0.375
	c-0.516,0-0.898,0.125-1.148,0.375s-0.375,0.633-0.375,1.148c0,0.5,0.125,0.875,0.375,1.117s0.633,0.359,1.148,0.359
	c0.5,0,0.871-0.117,1.113-0.359S297.523,24.139,297.523,23.639z M298.375,17.857c0-0.641-0.16-1.117-0.48-1.438
	s-0.801-0.484-1.441-0.484s-1.121,0.164-1.441,0.484s-0.48,0.797-0.48,1.438c0,0.656,0.16,1.148,0.48,1.469s0.801,0.477,1.441,0.477
	s1.121-0.156,1.441-0.477S298.375,18.514,298.375,17.857z"/>
<path fill="#FF9900" d="M331.125,39.127l-0.023,1.262c-2.422,1.102-4.82,1.914-7.188,2.457s-4.707,0.809-7.02,0.809
	c-1.281,0-2.457-0.125-3.52-0.375s-2.016-0.617-2.859-1.102c-1-0.578-1.754-1.32-2.262-2.227s-0.762-1.965-0.762-3.172
	c0-2.117,1.066-4.008,3.195-5.676c2.133-1.668,5.313-3.105,9.547-4.324c-0.344-1-0.926-1.766-1.75-2.281
	c-0.82-0.52-1.859-0.781-3.129-0.781c-1.359,0-2.594,0.281-3.707,0.836c-1.109,0.555-2.094,1.367-2.953,2.445l-1.234-1.203
	c1.313-2.008,2.938-3.523,4.879-4.547c1.938-1.016,4.199-1.531,6.777-1.531c2.094,0,3.938,0.586,5.523,1.746s2.93,2.91,4.023,5.23
	c0.859,1.828,1.496,3.773,1.91,5.844S331.172,36.803,331.125,39.127z M321.906,37.404c0-1.414-0.066-2.82-0.203-4.211
	c-0.133-1.383-0.344-2.758-0.625-4.117c-1.469,0.422-2.793,0.871-3.973,1.348c-1.18,0.473-2.207,0.98-3.082,1.508l2.398,9.66
	c1.25,0,2.328-0.07,3.234-0.211s1.633-0.363,2.18-0.676c0.031-0.559,0.051-1.113,0.059-1.66S321.906,37.951,321.906,37.404z
	 M327.492,30.982c0-0.563-0.137-0.984-0.41-1.266s-0.691-0.422-1.254-0.422s-0.988,0.141-1.277,0.422s-0.434,0.703-0.434,1.266
	s0.145,0.984,0.434,1.258s0.715,0.406,1.277,0.406s0.98-0.133,1.254-0.406S327.492,31.545,327.492,30.982z M328.453,37.295
	c0-0.594-0.207-1.102-0.621-1.523s-0.926-0.633-1.535-0.633c-0.594,0-1.105,0.203-1.535,0.609s-0.645,0.922-0.645,1.547
	c0,0.609,0.215,1.117,0.645,1.523s0.941,0.609,1.535,0.609c0.609,0,1.121-0.203,1.535-0.617S328.453,37.889,328.453,37.295z"/>
<path fill="#FF9900" d="M345.117,38.139c0,1.188-0.414,2.211-1.242,3.063s-1.836,1.273-3.023,1.273c-1.172,0-2.18-0.422-3.023-1.273
	s-1.266-1.875-1.266-3.063s0.418-2.203,1.254-3.055s1.848-1.281,3.035-1.281s2.195,0.43,3.023,1.281S345.117,36.951,345.117,38.139z
	 M342.359,37.545c0-0.547-0.191-1.039-0.574-1.484s-0.84-0.672-1.371-0.672c-0.516,0-0.961,0.227-1.336,0.672
	s-0.563,0.938-0.563,1.484s0.184,1.047,0.551,1.492s0.816,0.664,1.348,0.664c0.547,0,1.008-0.219,1.383-0.664
	S342.359,38.092,342.359,37.545z"/>
</svg>
